<svg xmlns="http://www.w3.org/2000/svg" viewBox="0 0 60 72" width="60" height="72">
  <!-- Interaction 20: heavily degraded, deep red, major tears, most content gone -->
  <defs>
    <linearGradient id="g20" x1="0" y1="0" x2="0" y2="1">
      <stop offset="0%" stop-color="#e0aa94"/>
      <stop offset="100%" stop-color="#cc8868"/>
    </linearGradient>
  </defs>
  <!-- Document body with torn edges -->
  <path d="M8,4 L10,2 H42 L56,16 V48 L52,46 L55,52 L50,50 L53,58 L46,54 L48,62 L42,60 L44,68 Q44,70 42,70 H12 L10,66 L6,68 Q4,68 4,66 V10 L8,8 Z" fill="url(#g20)" stroke="#984830" stroke-width="1.5"/>
  <path d="M42,2 L42,14 Q42,16 44,16 H56" fill="#c89070" stroke="#984830" stroke-width="1.2" stroke-linejoin="round"/>
  <!-- Remaining text fragments (most gone) -->
  <rect x="14" y="24" width="14" height="2.5" rx="1" fill="#987060"/>
  <rect x="14" y="38" width="8" height="2.5" rx="1" fill="#987060"/>
  <!-- Major cracks -->
  <path d="M14,4 L17,14 L12,26 L16,38 L11,50 L15,62 L12,70" fill="none" stroke="#a05030" stroke-width="1.5" opacity="0.7"/>
  <path d="M34,16 L38,26 L33,38 L37,48 L34,56" fill="none" stroke="#a05030" stroke-width="1" opacity="0.65"/>
  <path d="M26,2 L28,10 L25,20" fill="none" stroke="#a05030" stroke-width="0.8" opacity="0.5"/>
  <!-- Torn chunks missing (white reveals) -->
  <path d="M4,24 L14,20 L12,30 L4,28 Z" fill="#fafafa" stroke="#984830" stroke-width="0.5"/>
  <path d="M40,44 L50,40 L48,50 L42,48 Z" fill="#fafafa" stroke="#984830" stroke-width="0.5"/>
  <!-- Corner torn off -->
  <path d="M4,60 L14,56 L10,66 L4,64 Z" fill="#fafafa" stroke="#984830" stroke-width="0.5"/>
</svg>
